# xmcd
#
# Track frame offsets: 
#        150
#        18972
#        35715
#        56428
#        78080
#        93936
#        122306
#        137940
#        157664
#        172136
#        197897
#        233604
#        258600
#        280240
#        316051
#        333153
#
# Disc length: 4790 seconds
#
# Revision: 0
# Processed by: cddbd v1.5.2PL0 Copyright (c) Steve Scherf et al.
# Submitted via: ExactAudioCopy v0.95a5
#
DISCID=cb12b410
DTITLE=Various Artist - Blues Now Here!  Box5 CD1
DYEAR=2007
DGENRE=Blues
TTITLE0=Man of Many Words - JOE BONAMASSA
TTITLE1=Get Off My Back - MICKY MOODY
TTITLE2=Coffe and Cigarettes - GUITAR SHORTY
TTITLE3=Feeling Blue - ERIC BURDON
TTITLE4=I Can't Help Myself - BOBBY MACK
TTITLE5=When The Night Comes - PAUL CAMILLER
TTITLE6=Thrill Of It - ROBERT RANDOLPH
TTITLE7=How Verso Are You - VARGAS BLUES BAND
TTITLE8=Rock Me Baby - ALBERT CUMMINGS
TTITLE9=St.James Infirmery - RUDY ROTTA
TTITLE10=The Clock - PRESTON SHANNON
TTITLE11=It Don't Make Sense (You Can't Make Peace) - NEAL BLACK
TTITLE12=So Long, Farewell, You're Gone - BERNIE MARSDEN
TTITLE13=Choice Of Poisons - The BLUES NOTIONS
TTITLE14=Ain't Comin' Home Tonight - JIM SUHLER and MONKEY BEAT
TTITLE15=I want You (She´s so heavy) - The ERIC GALES BAND
EXTD=
EXTT0=
EXTT1=
EXTT2=
EXTT3=
EXTT4=
EXTT5=
EXTT6=
EXTT7=
EXTT8=
EXTT9=
EXTT10=
EXTT11=
EXTT12=
EXTT13=
EXTT14=
EXTT15=
PLAYORDER=
